<svg width="199" height="56" viewBox="0 0 199 56" fill="none" xmlns="http://www.w3.org/2000/svg">
<path fill-rule="evenodd" clip-rule="evenodd" d="M164.635 36.3275C168.559 36.3275 171.663 31.8243 171.663 26.2831V12.8906H174.815V26.2831C174.815 33.649 170.277 39.5919 164.698 39.5919C159.12 39.5919 154.582 33.649 154.582 26.2831V12.8906H157.734V26.2831C157.607 31.908 160.712 36.4112 164.62 36.4112L164.635 36.3275ZM88.7296 39.7933H85.5781V37.3993C83.5457 38.9107 81.1256 39.7229 78.6447 39.7263C72.8148 39.7677 67.7187 35.5566 66.3216 29.5433C64.9246 23.5299 67.5912 17.2833 72.7697 14.4382C77.9483 11.593 84.2877 12.8916 88.0993 17.5784L85.7829 19.7715C82.885 16.3294 78.1513 15.4301 74.3101 17.5919C70.4689 19.7537 68.5102 24.4195 69.5628 28.9001C70.6154 33.3807 74.4082 36.5214 78.755 36.5121C81.405 36.5179 83.9254 35.2952 85.6568 33.164H77.1478V29.8158H88.7611L88.7296 39.7933ZM54.6967 33.1967C59.9183 33.1967 64.1512 28.6996 64.1512 23.1523C64.1512 17.6049 59.9183 13.1079 54.6967 13.1079C52.1892 13.1079 49.7844 14.1662 48.0113 16.0498C46.2383 17.9335 45.2422 20.4884 45.2422 23.1523C45.2422 28.6996 49.4751 33.1967 54.6967 33.1967ZM35.423 13.1081H32.2715V39.7592H44.8775V36.4111H35.423V13.1081ZM54.6956 29.8481C58.1766 29.8481 60.9986 26.8501 60.9986 23.1518C60.9986 19.4536 58.1766 16.4556 54.6956 16.4556C51.2145 16.4556 48.3926 19.4536 48.3926 23.1518C48.4099 26.837 51.2268 29.8146 54.6956 29.8146V29.8481ZM60.9986 39.7925V36.4443H48.3926V39.7925H60.9986ZM109.782 23.2193C109.782 17.672 105.549 13.1749 100.328 13.1749L100.359 13.108C97.8354 13.099 95.4128 14.1625 93.6311 16.0616C91.8494 17.9608 90.8564 20.538 90.8732 23.2193C90.8732 28.7667 95.1062 33.2637 100.328 33.2637C105.549 33.2637 109.782 28.7667 109.782 23.2193ZM100.328 29.9159C103.809 29.9159 106.631 26.9179 106.631 23.2197C106.631 19.5215 103.809 16.5234 100.328 16.5234C96.8473 16.5234 94.0254 19.5215 94.0254 23.2197C94.0772 26.8917 96.9032 29.8343 100.36 29.8155L100.328 29.9159ZM106.631 39.8594V36.5112H94.0254V39.8594H106.631ZM113.141 13.1079H116.292V39.7255H113.141V13.1079ZM123.808 13.1081H120.656V39.7759H123.808V33.0797H124.296C127.897 33.4947 131.405 31.6874 133.328 28.4261C135.251 25.1648 135.251 21.023 133.328 17.7617C131.405 14.5004 127.897 12.693 124.296 13.1081C124.134 13.0898 123.97 13.0898 123.808 13.1081ZM123.807 16.457V16.5351L123.791 16.5407L123.807 16.457ZM123.807 16.5351C123.965 16.4793 124.129 16.4419 124.295 16.4235C126.726 16.0797 129.123 17.2643 130.441 19.4605C131.76 21.6566 131.76 24.4657 130.441 26.6619C129.123 28.858 126.726 30.0427 124.295 29.6988H123.807V16.5351ZM146.461 15.0771L146.513 15.0333L146.498 15.117L146.461 15.0771ZM142.07 13.1919C143.718 13.1402 145.311 13.8245 146.461 15.0771L144.181 16.992C143.36 16.0801 142.115 15.7565 140.99 16.1621C139.865 16.5677 139.063 17.629 138.934 18.8837V19.1515C138.934 20.6247 139.895 21.6124 141.77 21.7463C148.987 22.2151 152.296 25.8143 152.296 30.5686V30.87C151.916 34.7127 149.461 37.9668 146.014 39.1984C142.566 40.43 138.76 39.4129 136.271 36.5953L138.682 34.6199C139.818 35.913 141.431 36.6108 143.094 36.5283C146.247 36.7049 148.971 34.2096 149.271 30.87V30.6356C149.271 26.1659 145.142 25.3456 141.565 24.9773C138.256 24.6425 135.877 22.4494 135.877 19.2855V19.1515C136.119 15.7306 138.842 13.1109 142.07 13.1919ZM195.848 39.6753H198.999L198.968 13.1079L188.568 27.6555L178.168 13.1079V39.7255H181.319V23.1021L188.584 33.1465L195.848 23.1021V39.6753Z" fill="white"/>
<path fill-rule="evenodd" clip-rule="evenodd" d="M17.1442 9.10691C17.1442 4.0773 13.3063 0 8.5721 0C3.83786 0 0 4.0773 0 9.10691V36.6453L7.05938 42.019V55.1102H10.0848V42.019L17.1442 36.6453V9.10691ZM14.1199 24.5075L10.0859 28.7931V24.7753L14.1199 20.4897V24.5075ZM7.12378 24.7753L3.08984 20.4897V24.5075L7.12378 28.7931V24.7753ZM14.1207 15.9373L8.574 21.83L3.02734 15.8034V11.7856L8.574 17.6783L14.1207 11.7856V15.9373ZM13.93 7.58275C13.2713 5.01268 11.0796 3.22523 8.57241 3.21345V3.14648C6.04724 3.16643 3.84965 4.98612 3.21484 7.58275L8.57241 13.2578L13.93 7.58275ZM3.02734 35.0217V28.9951L7.06128 33.2807V38.0685L3.02734 35.0217ZM10.0859 33.2807V38.0853L14.1199 35.005V28.9951L10.0859 33.2807Z" fill="#0045F6"/>
</svg>
